<svg width="1447" height="242" viewBox="0 0 1447 242" fill="none" xmlns="http://www.w3.org/2000/svg">
<g filter="url(#filter0_d_0_506)">
<path d="M1439.73 180.233L1234.74 191.908L1029.75 222.263L824.757 223.431L618.271 210.588L413.281 233.938L208.29 228.101L3.30005 183.735V12.1124L208.29 12.1124L413.281 12.1124H618.271L824.757 12.1124L1029.75 12.1124L1234.74 12.1124L1439.73 12.1124V180.233Z" fill="#74BFEF"/>
<path d="M1439.73 191.907L1234.74 209.42L1029.75 173.227L824.757 200.08L618.271 215.257L413.281 128.862L208.29 125.36L3.30005 167.39V12.1118L208.29 12.1118L413.281 12.1118H618.271L824.757 12.1118L1029.75 12.1118L1234.74 12.1118L1439.73 12.1118V191.907Z" fill="#32A6FB"/>
<path d="M1439.73 104.345L1234.74 163.887L1029.75 137.035L824.757 107.847L618.271 148.71L413.281 107.847L208.29 131.197L3.30005 146.375V12.112L208.29 12.112L413.281 12.112H618.271L824.757 12.112L1029.75 12.112L1234.74 12.112L1439.73 12.112V104.345Z" fill="#0089FF"/>
<path d="M1442.73 102.658L1237.37 67.538L1032.01 58.0827L826.656 70.2395L619.8 52.6796L414.443 94.5532L209.085 56.7319L3.72791 40.5228V0L209.085 0L414.443 0L619.8 0L826.656 0L1032.01 0L1237.37 0L1442.73 0V102.658Z" fill="#0066FF"/>
</g>
<defs>
<filter id="filter0_d_0_506" x="4.88758e-05" y="4.57764e-05" width="1446.03" height="241.238" filterUnits="userSpaceOnUse" color-interpolation-filters="sRGB">
<feFlood flood-opacity="0" result="BackgroundImageFix"/>
<feColorMatrix in="SourceAlpha" type="matrix" values="0 0 0 0 0 0 0 0 0 0 0 0 0 0 0 0 0 0 127 0" result="hardAlpha"/>
<feOffset dy="4"/>
<feGaussianBlur stdDeviation="1.65"/>
<feComposite in2="hardAlpha" operator="out"/>
<feColorMatrix type="matrix" values="0 0 0 0 0 0 0 0 0 0 0 0 0 0 0 0 0 0 0.25 0"/>
<feBlend mode="normal" in2="BackgroundImageFix" result="effect1_dropShadow_0_506"/>
<feBlend mode="normal" in="SourceGraphic" in2="effect1_dropShadow_0_506" result="shape"/>
</filter>
</defs>
</svg>
