<svg width="1440" height="207" viewBox="0 0 1440 207" fill="none" xmlns="http://www.w3.org/2000/svg">
<path d="M-14 48.1789L197.494 37.7053L408.988 10.4737L620.481 9.42632L833.519 20.9474L1045.01 0L1256.51 5.23684L1468 45.0368V199H1256.51H1045.01H833.519H620.481H408.988H197.494H-14V48.1789Z" fill="#74BFEF"/>
<path d="M-14 38.8046L197.494 23.2011L408.988 55.4483L620.481 31.523L833.519 18L1045.01 94.977L1256.51 98.0977L1468 60.6494V199H1256.51H1045.01H833.519H620.481H408.988H197.494H-14V38.8046Z" fill="#32A6FB"/>
<path d="M-14 118.177L197.494 66L408.988 89.5308L620.481 115.108L833.519 79.3L1045.01 115.108L1256.51 94.6462L1468 81.3462V199H1256.51H1045.01H833.519H620.481H408.988H197.494H-14V118.177Z" fill="#0089FF"/>
<path d="M-2 123L209.494 151.737L420.988 159.474L632.481 149.526L845.519 163.895L1057.01 129.632L1268.51 160.579L1480 173.842V207H1268.51H1057.01H845.519H632.481H420.988H209.494H-2V123Z" fill="#0066FF"/>
</svg>
