<svg width="1440" height="1799" viewBox="0 0 1440 1799" fill="none" xmlns="http://www.w3.org/2000/svg" xmlns:xlink="http://www.w3.org/1999/xlink">
<rect width="1440" height="1799" fill="#0066FF"/>
<rect width="1440" height="1799" fill="url(#pattern0_0_285)" fill-opacity="0.1"/>
<defs>
<pattern id="pattern0_0_285" patternUnits="userSpaceOnUse" patternTransform="matrix(427.648 0 0 259.056 0 0)" preserveAspectRatio="none" viewBox="0 0 2138.24 1295.28" width="1" height="1">
<use xlink:href="#pattern0_0_285_inner" transform="translate(0 -1295.28)"/>
<use xlink:href="#pattern0_0_285_inner" transform="translate(1069.12 -647.64)"/>
<g id="pattern0_0_285_inner">
<path d="M208 240C274.3 240 328 186.3 328 120C328 53.7 274.3 0 208 0C141.7 0 88 53.7 88 120C88 186.3 141.7 240 208 240ZM178.3 296C79.8 296 0 375.8 0 474.3C0 490.7 13.3 504 29.7 504H386.3C402.7 504 416 490.7 416 474.3C416 375.8 336.2 296 237.7 296H178.3Z" fill="black"/>
</g>
<use xlink:href="#pattern0_0_285_inner" transform="translate(1069.12 647.64)"/>
</pattern></defs>
</svg>
