<svg width="1440" height="252" viewBox="0 0 1440 252" fill="none" xmlns="http://www.w3.org/2000/svg">
<path d="M-226 61.3333L24.5958 48L275.192 13.3333L525.787 12L778.212 26.6667L1028.81 0L1279.4 6.66667L1530 57.3333V253.333H1279.4H1028.81H778.212H525.787H275.192H24.5958H-226V61.3333Z" fill="#74BFEF"/>
<path d="M-226 48.0002L24.5958 28.0002L275.192 69.3335L525.787 38.6668L778.212 21.3335L1028.81 120L1279.4 124L1530 76.0002V253.334H1279.4H1028.81H778.212H525.787H275.192H24.5958H-226V48.0002Z" fill="#32A6FB"/>
<path d="M-226 148L24.5958 80L275.192 110.667L525.787 144L778.212 97.3333L1028.81 144L1279.4 117.333L1530 100V253.333H1279.4H1028.81H778.212H525.787H275.192H24.5958H-226V148Z" fill="#0089FF"/>
<path d="M-212 150L38.5958 184.667L289.192 194L539.787 182L792.212 199.333L1042.81 158L1293.4 195.333L1544 211.333V251.333H1293.4H1042.81H792.212H539.787H289.192H38.5958H-212V150Z" fill="#0066FF"/>
</svg>
