<svg id="visual" viewBox="0 0 960 540" width="960" height="540" xmlns="http://www.w3.org/2000/svg" xmlns:xlink="http://www.w3.org/1999/xlink" version="1.1"><rect x="0" y="0" width="960" height="540" fill="#ffffff"></rect><path d="M0 397L137 387L274 361L411 360L549 371L686 351L823 356L960 394L960 541L823 541L686 541L549 541L411 541L274 541L137 541L0 541Z" fill="#74bfef"></path><path d="M0 387L137 372L274 403L411 380L549 367L686 441L823 444L960 408L960 541L823 541L686 541L549 541L411 541L274 541L137 541L0 541Z" fill="#32a6fb"></path><path d="M0 462L137 411L274 434L411 459L549 424L686 459L823 439L960 426L960 541L823 541L686 541L549 541L411 541L274 541L137 541L0 541Z" fill="#0089ff"></path><path d="M0 465L137 491L274 498L411 489L549 502L686 471L823 499L960 511L960 541L823 541L686 541L549 541L411 541L274 541L137 541L0 541Z" fill="#0066ff"></path></svg>